REM DIRINDEX 1\2,1\3\7,1\3\8,1\4\9,1\4\10,1\4\11,1\5\12,1\5\13,1\5\14,1\6\15,1\6\16,1\6\17
REM DIRNAME "folder01","folder02","folder03","folder04","folder05","folder06","folder07","folder08","folder09","folder10","folder11","folder12","folder13","folder14","folder15","folder16","folder17"
TITLE ""
FILE "2Q_j_1607-1620.mp3" MP3
  TRACK 01 AUDIO
    TITLE "0:"
    INDEX 01 00:00:00
  TRACK 02 AUDIO
    TITLE "9:cjc174_1041"
    INDEX 01 00:00:14
  TRACK 03 AUDIO
    TITLE "0:"
    INDEX 01 00:01:35
  TRACK 04 AUDIO
    TITLE "10:cjc174_1042"
    INDEX 01 00:02:05
  TRACK 05 AUDIO
    TITLE "0:"
    INDEX 01 00:05:68
  TRACK 06 AUDIO
    TITLE "11:cjc174_1043"
    INDEX 01 00:06:36
  TRACK 07 AUDIO
    TITLE "0:"
    INDEX 01 00:11:10
  TRACK 08 AUDIO
    TITLE "9:cjc174_1044"
    INDEX 01 00:11:57
  TRACK 09 AUDIO
    TITLE "0:"
    INDEX 01 00:13:03
  TRACK 10 AUDIO
    TITLE "10:cjc174_1045"
    INDEX 01 00:13:46
  TRACK 11 AUDIO
    TITLE "0:"
    INDEX 01 00:14:65
  TRACK 12 AUDIO
    TITLE "11:cjc174_1046"
    INDEX 01 00:15:33
  TRACK 13 AUDIO
    TITLE "0:"
    INDEX 01 00:18:73
  TRACK 14 AUDIO
    TITLE "9:cjc174_1047"
    INDEX 01 00:19:51
  TRACK 15 AUDIO
    TITLE "0:"
    INDEX 01 00:20:56
  TRACK 16 AUDIO
    TITLE "10:cjc174_1048"
    INDEX 01 00:21:28
  TRACK 17 AUDIO
    TITLE "0:"
    INDEX 01 00:22:43
  TRACK 18 AUDIO
    TITLE "11:cjc174_1049"
    INDEX 01 00:23:15
  TRACK 19 AUDIO
    TITLE "0:"
    INDEX 01 00:25:69
  TRACK 20 AUDIO
    TITLE "9:cjc174_1050"
    INDEX 01 00:26:41
  TRACK 21 AUDIO
    TITLE "0:"
    INDEX 01 00:28:13
  TRACK 22 AUDIO
    TITLE "10:cjc174_1051"
    INDEX 01 00:28:63
  TRACK 23 AUDIO
    TITLE "0:"
    INDEX 01 00:30:29
  TRACK 24 AUDIO
    TITLE "11:cjc174_1052"
    INDEX 01 00:30:74
  TRACK 25 AUDIO
    TITLE "0:"
    INDEX 01 00:34:19
  TRACK 26 AUDIO
    TITLE "9:cjc174_1053"
    INDEX 01 00:34:70
  TRACK 27 AUDIO
    TITLE "0:"
    INDEX 01 00:36:10
  TRACK 28 AUDIO
    TITLE "10:cjc174_1054"
    INDEX 01 00:36:57
  TRACK 29 AUDIO
    TITLE "0:"
    INDEX 01 00:39:55
  TRACK 30 AUDIO
    TITLE "11:cjc174_1055"
    INDEX 01 00:40:25
  TRACK 31 AUDIO
    TITLE "0:"
    INDEX 01 00:43:67
  TRACK 32 AUDIO
    TITLE "9:cjc174_1056"
    INDEX 01 00:44:39
  TRACK 33 AUDIO
    TITLE "0:"
    INDEX 01 00:45:56
  TRACK 34 AUDIO
    TITLE "10:cjc174_1057"
    INDEX 01 00:46:28
  TRACK 35 AUDIO
    TITLE "0:"
    INDEX 01 00:48:07
  TRACK 36 AUDIO
    TITLE "11:cjc174_1058"
    INDEX 01 00:48:52
  TRACK 37 AUDIO
    TITLE "0:"
    INDEX 01 00:51:66
  TRACK 38 AUDIO
    TITLE "9:cjc174_1059"
    INDEX 01 00:52:44
  TRACK 39 AUDIO
    TITLE "0:"
    INDEX 01 00:53:42
  TRACK 40 AUDIO
    TITLE "10:cjc174_1060"
    INDEX 01 00:54:12
  TRACK 41 AUDIO
    TITLE "0:"
    INDEX 01 00:55:41
  TRACK 42 AUDIO
    TITLE "11:cjc174_1061"
    INDEX 01 00:56:09
  TRACK 43 AUDIO
    TITLE "0:"
    INDEX 01 00:59:48
  TRACK 44 AUDIO
    TITLE "9:cjc174_1062"
    INDEX 01 01:00:22
  TRACK 45 AUDIO
    TITLE "0:"
    INDEX 01 01:02:17
  TRACK 46 AUDIO
    TITLE "10:cjc174_1063"
    INDEX 01 01:02:66
  TRACK 47 AUDIO
    TITLE "0:"
    INDEX 01 01:05:18
  TRACK 48 AUDIO
    TITLE "11:cjc174_1064"
    INDEX 01 01:05:63
  TRACK 49 AUDIO
    TITLE "0:"
    INDEX 01 01:08:53
  TRACK 50 AUDIO
    TITLE "9:cjc174_1065"
    INDEX 01 01:09:29
  TRACK 51 AUDIO
    TITLE "0:"
    INDEX 01 01:11:20
  TRACK 52 AUDIO
    TITLE "10:cjc174_1066"
    INDEX 01 01:11:67
  TRACK 53 AUDIO
    TITLE "0:"
    INDEX 01 01:13:29
  TRACK 54 AUDIO
    TITLE "11:cjc174_1067"
    INDEX 01 01:13:74
  TRACK 55 AUDIO
    TITLE "0:"
    INDEX 01 01:19:45
  TRACK 56 AUDIO
    TITLE "9:cjc174_1068"
    INDEX 01 01:20:19
  TRACK 57 AUDIO
    TITLE "0:"
    INDEX 01 01:21:32
  TRACK 58 AUDIO
    TITLE "10:cjc174_1069"
    INDEX 01 01:22:02
  TRACK 59 AUDIO
    TITLE "0:"
    INDEX 01 01:23:59
  TRACK 60 AUDIO
    TITLE "11:cjc174_1070"
    INDEX 01 01:24:31
  TRACK 61 AUDIO
    TITLE "0:"
    INDEX 01 01:28:36
  TRACK 62 AUDIO
    TITLE "9:cjc174_1071"
    INDEX 01 01:29:08
  TRACK 63 AUDIO
    TITLE "0:"
    INDEX 01 01:30:08
  TRACK 64 AUDIO
    TITLE "10:cjc174_1072"
    INDEX 01 01:30:63
  TRACK 65 AUDIO
    TITLE "0:"
    INDEX 01 01:35:54
  TRACK 66 AUDIO
    TITLE "11:cjc174_1073"
    INDEX 01 01:36:22
  TRACK 67 AUDIO
    TITLE "0:"
    INDEX 01 01:39:16
  TRACK 68 AUDIO
    TITLE "9:cjc174_1074"
    INDEX 01 01:39:67
  TRACK 69 AUDIO
    TITLE "0:"
    INDEX 01 01:41:51
  TRACK 70 AUDIO
    TITLE "10:cjc174_1075"
    INDEX 01 01:42:21
  TRACK 71 AUDIO
    TITLE "0:"
    INDEX 01 01:44:16
  TRACK 72 AUDIO
    TITLE "11:cjc174_1076"
    INDEX 01 01:44:61
  TRACK 73 AUDIO
    TITLE "0:"
    INDEX 01 01:50:03
  TRACK 74 AUDIO
    TITLE "9:cjc174_1077"
    INDEX 01 01:50:50
  TRACK 75 AUDIO
    TITLE "0:"
    INDEX 01 01:52:35
  TRACK 76 AUDIO
    TITLE "10:cjc174_1078"
    INDEX 01 01:53:07
  TRACK 77 AUDIO
    TITLE "0:"
    INDEX 01 01:55:19
  TRACK 78 AUDIO
    TITLE "11:cjc174_1079"
    INDEX 01 01:55:64
  TRACK 79 AUDIO
    TITLE "0:"
    INDEX 01 02:00:52
  TRACK 80 AUDIO
    TITLE "9:cjc174_1080"
    INDEX 01 02:01:24
  TRACK 81 AUDIO
    TITLE "0:"
    INDEX 01 02:02:45
  TRACK 82 AUDIO
    TITLE "10:cjc174_1081"
    INDEX 01 02:03:17
  TRACK 83 AUDIO
    TITLE "0:"
    INDEX 01 02:04:36
  TRACK 84 AUDIO
    TITLE "11:cjc174_1082"
    INDEX 01 02:05:06
  TRACK 85 AUDIO
    TITLE "0:"
    INDEX 01 02:07:70
